<svg width="1680" height="323" viewBox="0 0 1680 323" fill="none" xmlns="http://www.w3.org/2000/svg">
<rect width="1680" height="323" fill="black"/>
<path d="M799.661 281.53C797.234 281.53 795.041 281.273 793.081 280.76C791.121 280.247 789.581 279.43 788.461 278.31C787.341 277.19 786.781 275.72 786.781 273.9C786.781 272.593 787.061 271.45 787.621 270.47C788.181 269.49 788.904 268.65 789.791 267.95C790.678 267.203 791.611 266.597 792.591 266.13C791.284 265.757 790.304 265.173 789.651 264.38C788.998 263.54 788.671 262.677 788.671 261.79C788.671 260.297 789.068 259.013 789.861 257.94C790.654 256.867 791.751 255.7 793.151 254.44C791.611 253.273 790.444 251.78 789.651 249.96C788.858 248.14 788.461 245.62 788.461 242.4C788.461 239.227 788.881 236.59 789.721 234.49C790.608 232.343 791.891 230.733 793.571 229.66C795.298 228.54 797.398 227.98 799.871 227.98C802.064 227.98 803.814 228.353 805.121 229.1C806.474 229.847 807.501 230.967 808.201 232.46C808.434 232.087 809.064 231.457 810.091 230.57C811.118 229.637 812.308 228.867 813.661 228.26L814.781 227.77L816.671 232.6C816.064 232.693 815.248 232.927 814.221 233.3C813.241 233.627 812.308 233.977 811.421 234.35C810.581 234.677 810.044 234.957 809.811 235.19C810.138 235.983 810.418 237.127 810.651 238.62C810.931 240.113 811.071 241.443 811.071 242.61C811.071 245.363 810.721 247.79 810.021 249.89C809.321 251.99 808.154 253.647 806.521 254.86C804.934 256.027 802.718 256.61 799.871 256.61C799.264 256.61 798.611 256.563 797.911 256.47C797.211 256.377 796.581 256.26 796.021 256.12C795.741 256.54 795.438 257.03 795.111 257.59C794.831 258.15 794.691 258.687 794.691 259.2C794.691 259.713 794.948 260.133 795.461 260.46C796.021 260.74 796.884 260.927 798.051 261.02L804.351 261.58C807.524 261.86 809.881 262.817 811.421 264.45C812.961 266.083 813.731 268.417 813.731 271.45C813.731 273.643 813.218 275.487 812.191 276.98C811.164 278.52 809.601 279.663 807.501 280.41C805.448 281.157 802.834 281.53 799.661 281.53ZM800.221 275.65C802.881 275.65 804.841 275.323 806.101 274.67C807.361 274.063 807.991 273.06 807.991 271.66C807.991 270.82 807.828 270.12 807.501 269.56C807.221 269 806.684 268.557 805.891 268.23C805.098 267.903 803.954 267.67 802.461 267.53L796.091 266.97C795.578 267.483 795.088 267.997 794.621 268.51C794.154 269.023 793.781 269.56 793.501 270.12C793.221 270.727 793.081 271.357 793.081 272.01C793.081 273.223 793.594 274.133 794.621 274.74C795.648 275.347 797.514 275.65 800.221 275.65ZM799.871 251.36C800.944 251.36 801.784 251.173 802.391 250.8C803.044 250.38 803.534 249.797 803.861 249.05C804.188 248.257 804.398 247.3 804.491 246.18C804.631 245.06 804.701 243.8 804.701 242.4C804.701 241 804.631 239.74 804.491 238.62C804.398 237.453 804.188 236.473 803.861 235.68C803.581 234.84 803.114 234.21 802.461 233.79C801.854 233.37 801.014 233.16 799.941 233.16C798.914 233.16 798.051 233.37 797.351 233.79C796.698 234.21 796.208 234.817 795.881 235.61C795.554 236.357 795.321 237.313 795.181 238.48C795.041 239.6 794.971 240.907 794.971 242.4C794.971 243.66 795.018 244.85 795.111 245.97C795.251 247.043 795.484 247.977 795.811 248.77C796.184 249.563 796.698 250.193 797.351 250.66C798.004 251.127 798.844 251.36 799.871 251.36ZM819.581 282.3V228.54H827.071V231.76C827.957 230.733 829.031 229.847 830.291 229.1C831.551 228.353 833.044 227.98 834.771 227.98C836.871 227.98 838.527 228.54 839.741 229.66C841.001 230.733 841.934 232.11 842.541 233.79C843.147 235.423 843.544 237.103 843.731 238.83C843.917 240.51 844.011 241.957 844.011 243.17V252.97C844.011 255.817 843.731 258.523 843.171 261.09C842.611 263.61 841.584 265.663 840.091 267.25C838.644 268.79 836.591 269.56 833.931 269.56C832.484 269.56 831.201 269.21 830.081 268.51C828.961 267.763 827.957 266.923 827.071 265.99V282.3H819.581ZM832.461 263.68C833.767 263.68 834.701 263.213 835.261 262.28C835.821 261.3 836.171 259.993 836.311 258.36C836.451 256.727 836.521 254.93 836.521 252.97V243.17C836.521 241.49 836.427 239.95 836.241 238.55C836.054 237.103 835.657 235.96 835.051 235.12C834.444 234.28 833.487 233.86 832.181 233.86C831.201 233.86 830.267 234.07 829.381 234.49C828.494 234.91 827.724 235.4 827.071 235.96V261.86C827.771 262.373 828.564 262.817 829.451 263.19C830.337 263.517 831.341 263.68 832.461 263.68ZM850.821 269V228.54H857.751V232.39C859.104 230.85 860.598 229.707 862.231 228.96C863.864 228.213 865.544 227.84 867.271 227.84C868.764 227.84 870.094 228.213 871.261 228.96C872.474 229.707 873.338 231.037 873.851 232.95C875.298 231.177 876.861 229.893 878.541 229.1C880.268 228.26 882.064 227.84 883.931 227.84C885.238 227.84 886.428 228.167 887.501 228.82C888.574 229.427 889.438 230.43 890.091 231.83C890.744 233.183 891.071 234.98 891.071 237.22V269H884.211V237.71C884.211 235.75 883.884 234.443 883.231 233.79C882.624 233.09 881.784 232.74 880.711 232.74C879.684 232.74 878.611 233.043 877.491 233.65C876.371 234.21 875.344 235.003 874.411 236.03C874.411 236.217 874.411 236.403 874.411 236.59C874.411 236.777 874.411 236.987 874.411 237.22V269H867.551V237.71C867.551 235.75 867.224 234.443 866.571 233.79C865.964 233.09 865.124 232.74 864.051 232.74C863.024 232.74 861.951 233.043 860.831 233.65C859.758 234.21 858.731 235.003 857.751 236.03V269H850.821Z" fill="white"/>
<rect x="766.5" y="36.5" width="147" height="147" rx="8.5" fill="black" stroke="white" stroke-width="3"/>
<path d="M807.591 141.63C804.371 141.63 801.711 140.907 799.611 139.46C797.558 138.013 796.018 136.03 794.991 133.51C794.011 130.99 793.521 128.12 793.521 124.9V100.47C793.521 97.1567 794.011 94.2633 794.991 91.79C795.971 89.27 797.488 87.31 799.541 85.91C801.641 84.51 804.324 83.81 807.591 83.81C810.858 83.81 813.518 84.51 815.571 85.91C817.624 87.31 819.141 89.27 820.121 91.79C821.101 94.2633 821.591 97.1567 821.591 100.47V124.9C821.591 128.167 821.078 131.06 820.051 133.58C819.071 136.1 817.554 138.083 815.501 139.53C813.448 140.93 810.811 141.63 807.591 141.63ZM807.591 135.47C809.364 135.47 810.694 134.957 811.581 133.93C812.514 132.903 813.144 131.597 813.471 130.01C813.844 128.377 814.031 126.697 814.031 124.97V100.4C814.031 98.58 813.868 96.8767 813.541 95.29C813.214 93.6567 812.584 92.35 811.651 91.37C810.764 90.39 809.411 89.9 807.591 89.9C805.771 89.9 804.394 90.39 803.461 91.37C802.528 92.35 801.898 93.6567 801.571 95.29C801.244 96.8767 801.081 98.58 801.081 100.4V124.97C801.081 126.697 801.244 128.377 801.571 130.01C801.944 131.597 802.598 132.903 803.531 133.93C804.511 134.957 805.864 135.47 807.591 135.47ZM837.593 141V94.1C837.546 94.1467 837.01 94.2867 835.983 94.52C835.003 94.7533 833.883 94.9867 832.623 95.22C831.363 95.4533 830.243 95.6633 829.263 95.85C828.283 96.0367 827.77 96.13 827.723 96.13V90.46C828.516 90.2733 829.426 90.0167 830.453 89.69C831.526 89.3633 832.6 88.9667 833.673 88.5C834.793 88.0333 835.843 87.45 836.823 86.75C837.85 86.05 838.713 85.2333 839.413 84.3H845.083V141H837.593ZM871.507 141.63C868.287 141.63 865.627 140.907 863.527 139.46C861.474 138.013 859.934 136.03 858.907 133.51C857.927 130.99 857.437 128.12 857.437 124.9V100.47C857.437 97.1567 857.927 94.2633 858.907 91.79C859.887 89.27 861.404 87.31 863.457 85.91C865.557 84.51 868.24 83.81 871.507 83.81C874.774 83.81 877.434 84.51 879.487 85.91C881.54 87.31 883.057 89.27 884.037 91.79C885.017 94.2633 885.507 97.1567 885.507 100.47V124.9C885.507 128.167 884.994 131.06 883.967 133.58C882.987 136.1 881.47 138.083 879.417 139.53C877.364 140.93 874.727 141.63 871.507 141.63ZM871.507 135.47C873.28 135.47 874.61 134.957 875.497 133.93C876.43 132.903 877.06 131.597 877.387 130.01C877.76 128.377 877.947 126.697 877.947 124.97V100.4C877.947 98.58 877.784 96.8767 877.457 95.29C877.13 93.6567 876.5 92.35 875.567 91.37C874.68 90.39 873.327 89.9 871.507 89.9C869.687 89.9 868.31 90.39 867.377 91.37C866.444 92.35 865.814 93.6567 865.487 95.29C865.16 96.8767 864.997 98.58 864.997 100.4V124.97C864.997 126.697 865.16 128.377 865.487 130.01C865.86 131.597 866.514 132.903 867.447 133.93C868.427 134.957 869.78 135.47 871.507 135.47Z" fill="white"/>
</svg>
